<svg width="64" height="64" viewBox="0 0 64 64" fill="none" xmlns="http://www.w3.org/2000/svg">
  <path
    d="M55.0943 35.563C52.8566 35.5755 50.9189 36.1133 49.2938 36.9138C48.6937 35.7256 48.0937 34.6874 47.9936 33.9119C47.8811 33.0113 47.7436 32.4609 47.8811 31.3852C48.0187 30.3095 48.6437 28.7835 48.6437 28.6584C48.6312 28.5459 48.5062 27.9955 47.2186 27.983C45.931 27.9705 44.8184 28.2332 44.6934 28.5709C44.5684 28.9086 44.3183 29.6841 44.1558 30.4846C43.9308 31.6604 41.5806 35.8256 40.243 38.0146C39.8054 37.164 39.4304 36.4135 39.3554 35.8131C39.2429 34.9125 39.1054 34.3622 39.2429 33.2865C39.3804 32.2108 40.0055 30.6848 40.0055 30.5597C39.993 30.4471 39.8679 29.8967 38.5803 29.8842C37.2927 29.8717 36.1801 30.1344 36.0551 30.4721C35.9301 30.8098 35.7926 31.6104 35.5176 32.3859C35.255 33.1614 32.1298 40.1159 31.3172 41.9296C30.9047 42.8552 30.5421 43.5932 30.2796 44.0935C30.0171 44.5939 30.2671 44.1311 30.2421 44.1811C30.0171 44.6064 29.8921 44.844 29.8921 44.844V44.8565C29.7171 45.1692 29.5295 45.4694 29.442 45.4694C29.3795 45.4694 29.2545 44.6314 29.467 43.4806C29.9296 41.0666 31.0547 37.3016 31.0422 37.164C31.0422 37.1015 31.2547 36.4385 30.3171 36.1008C29.4045 35.7631 29.0795 36.3259 29.0045 36.3259C28.9295 36.3259 28.867 36.5261 28.867 36.5261C28.867 36.5261 29.8796 32.2858 26.9293 32.2858C25.0791 32.2858 22.5289 34.2996 21.2663 36.1383C20.4662 36.5761 18.7661 37.5017 16.9659 38.4899C16.2784 38.8651 15.5658 39.2654 14.8908 39.6281L14.7532 39.478C11.1779 35.663 4.56486 32.9612 4.83988 27.8329C4.93989 25.9692 5.58995 21.0535 17.541 15.0996C27.3293 10.2214 35.1675 11.5598 36.5302 14.5367C38.4678 18.7895 32.3423 26.6947 22.1664 27.8329C18.2911 28.2707 16.2534 26.7697 15.7408 26.2068C15.2033 25.6189 15.1283 25.5939 14.9283 25.7065C14.6032 25.8816 14.8033 26.407 14.9283 26.7197C15.2283 27.5077 16.4784 28.9086 18.6036 29.6091C20.4662 30.222 25.0166 30.5597 30.5171 28.4333C36.6802 26.0442 41.4931 19.4149 40.0805 13.8738C38.6428 8.23258 29.292 6.38137 20.4537 9.52092C15.1908 11.3971 9.49029 14.3241 5.38993 18.1641C0.514503 22.717 -0.260565 26.6946 0.0644637 28.3457C1.20206 34.2371 9.31527 38.0771 12.5656 40.9165C12.403 41.004 12.253 41.0916 12.1155 41.1666C10.4904 41.9671 4.30233 45.2068 2.7522 48.634C1.00205 52.5115 3.02722 55.3009 4.37734 55.6761C8.55271 56.8394 12.8281 54.7505 15.1408 51.3108C17.441 47.871 17.166 43.4056 16.1034 41.3667L16.0659 41.2917L17.341 40.5412C18.166 40.0534 18.9786 39.6031 19.6912 39.2153C19.2911 40.3036 19.0036 41.5919 18.8536 43.4681C18.6786 45.6696 19.5787 48.5214 20.7663 49.6472C21.2913 50.135 21.9164 50.1475 22.3039 50.1475C23.679 50.1475 24.3041 49.0092 24.9916 47.6459C25.8417 45.9823 26.5918 44.056 26.5918 44.056C26.5918 44.056 25.6542 49.2719 28.2169 49.2719C29.1545 49.2719 30.0921 48.0586 30.5171 47.4332V47.4457C30.5171 47.4457 30.5421 47.4082 30.5921 47.3206C30.6921 47.1705 30.7421 47.083 30.7421 47.083V47.058C31.1172 46.4075 31.9548 44.9191 33.2049 42.455C34.8175 39.2779 36.3676 35.3003 36.3676 35.3003C36.3676 35.3003 36.5177 36.2759 36.9802 37.877C37.2552 38.8276 37.8553 39.8658 38.3178 40.8789C37.9428 41.4043 37.7178 41.7045 37.7178 41.7045L37.7303 41.717C37.4302 42.1172 37.0927 42.5425 36.7427 42.9678C35.4676 44.4938 33.9424 46.2324 33.7424 46.7328C33.5049 47.3206 33.5549 47.7584 34.0174 48.1087C34.355 48.3588 34.955 48.4089 35.5926 48.3588C36.7427 48.2838 37.5427 47.9961 37.9428 47.821C38.5678 47.5958 39.2804 47.2581 39.9679 46.7578C41.2181 45.8322 41.9806 44.5188 41.9056 42.7677C41.8681 41.8045 41.5556 40.8539 41.1681 39.9533C41.2806 39.7907 41.3931 39.6281 41.5056 39.453C43.4808 36.5636 45.0059 33.3865 45.0059 33.3865C45.0059 33.3865 45.1559 34.3622 45.6184 35.9632C45.856 36.7762 46.331 37.6643 46.756 38.5399C44.9059 40.0534 43.7433 41.8045 43.3432 42.9553C42.6057 45.0817 43.1807 46.0448 44.2683 46.27C44.7559 46.37 45.4559 46.1449 45.981 45.9197C46.631 45.7071 47.4186 45.3443 48.1437 44.8065C49.3938 43.8809 50.5939 42.5925 50.5314 40.8539C50.4939 40.0534 50.2813 39.2654 49.9938 38.5149C51.569 37.8645 53.6066 37.4892 56.1944 37.8019C61.7574 38.4523 62.8574 41.9296 62.6449 43.3806C62.4324 44.8315 61.2698 45.632 60.8823 45.8822C60.4947 46.1199 60.3697 46.2074 60.4072 46.3825C60.4572 46.6452 60.6323 46.6327 60.9698 46.5827C61.4323 46.5076 63.895 45.3944 63.995 42.7176C64.1451 39.2779 60.8823 35.5254 55.0943 35.563ZM12.1905 50.0349C10.3529 52.0487 7.76514 52.8117 6.66504 52.1613C5.47744 51.4734 5.93998 48.5089 8.20267 46.37C9.57779 45.0692 11.3655 43.8684 12.5406 43.1304C12.8031 42.9678 13.2031 42.7301 13.6782 42.4425C13.7532 42.3924 13.8032 42.3674 13.8032 42.3674C13.8907 42.3174 13.9907 42.2548 14.0907 42.1923C14.9283 45.2443 14.1282 47.921 12.1905 50.0349ZM25.6292 40.8914C24.9916 42.455 23.6415 46.4701 22.829 46.2449C22.1289 46.0573 21.7039 43.0178 22.6914 40.0159C23.1915 38.5024 24.2541 36.7012 24.8791 36.0007C25.8917 34.875 26.9918 34.4998 27.2668 34.9626C27.5919 35.563 26.0292 39.9158 25.6292 40.8914ZM36.7177 46.1949C36.4426 46.3325 36.1926 46.4326 36.0801 46.3575C35.9926 46.3075 36.1926 46.1199 36.1926 46.1199C36.1926 46.1199 37.5802 44.6314 38.1303 43.9434C38.4428 43.5432 38.8178 43.0804 39.2179 42.555V42.7051C39.2179 44.5063 37.4927 45.7071 36.7177 46.1949ZM45.2684 44.2436C45.0684 44.0935 45.0934 43.6307 45.7685 42.1798C46.031 41.6044 46.631 40.6413 47.6686 39.7282C47.7936 40.1034 47.8686 40.4662 47.8561 40.8039C47.8436 43.0554 46.2435 43.8934 45.2684 44.2436Z"
    fill="#CF649A" />
</svg>
  