<svg width="64" height="64" viewBox="0 0 64 64" fill="none" xmlns="http://www.w3.org/2000/svg">
  <path
    d="M8.48604 58.976L6.50205 6.14411C6.47211 5.305 6.7712 4.4874 7.33553 3.86568C7.89986 3.24396 8.68476 2.86733 9.52284 2.81612L54.4507 0.00652795C54.8897 -0.0214833 55.3298 0.040852 55.7437 0.189679C56.1576 0.338507 56.5366 0.570662 56.8572 0.871791C57.1778 1.17292 57.4333 1.53662 57.6077 1.9404C57.7822 2.34418 57.872 2.77946 57.8715 3.21932V60.784C57.8711 61.2186 57.7827 61.6486 57.6116 62.0481C57.4405 62.4476 57.1903 62.8084 56.876 63.1086C56.5617 63.4088 56.1899 63.6422 55.783 63.7949C55.3761 63.9475 54.9425 64.0162 54.5083 63.9968L11.558 62.0672C10.7512 62.0308 9.98743 61.6925 9.41838 61.1193C8.84932 60.5461 8.51654 59.7831 8.48604 58.976Z"
    fill="#FF4785" />
  <path fill-rule="evenodd" clip-rule="evenodd"
    d="M50.9179 0.227295L44.7355 0.611294L44.4347 7.86568C44.4311 7.95644 44.4532 8.04639 44.4986 8.12507C44.544 8.20375 44.6108 8.26794 44.6912 8.31016C44.7717 8.35239 44.8624 8.37093 44.953 8.36362C45.0435 8.35631 45.1301 8.32346 45.2027 8.26888L48.0187 6.13128L50.3995 8.00648C50.4714 8.06337 50.5581 8.09849 50.6493 8.10769C50.7405 8.11689 50.8324 8.09977 50.9142 8.05837C50.996 8.01697 51.0642 7.95302 51.1108 7.87407C51.1574 7.79513 51.1804 7.70449 51.1771 7.61288L50.9179 0.227295ZM46.1051 24.5152C44.9755 25.3952 36.5404 25.9936 36.5404 24.7424C36.7196 19.9648 34.582 19.7568 33.3916 19.7568C32.2652 19.7568 30.3644 20.096 30.3644 22.656C30.3644 25.264 33.142 26.736 36.4028 28.464C41.0332 30.9184 46.6427 33.8912 46.6427 41.3664C46.6427 48.5344 40.8188 52.4896 33.3948 52.4896C25.7308 52.4896 19.0332 49.3888 19.7884 38.64C20.086 37.3792 29.83 37.68 29.83 38.64C29.7084 43.0752 30.7196 44.3808 33.2732 44.3808C35.2348 44.3808 36.1244 43.2992 36.1244 41.4816C36.1244 38.7264 33.2316 37.1008 29.9004 35.232C25.3916 32.7008 20.086 29.7216 20.086 22.8832C20.086 16.0609 24.7772 11.5105 33.1548 11.5105C41.5324 11.5105 46.1051 15.9905 46.1051 24.5152Z"
    fill="white" />
</svg>
  