<svg width="64" height="64" viewBox="0 0 64 64" fill="none" xmlns="http://www.w3.org/2000/svg">
  <path fill-rule="evenodd" clip-rule="evenodd"
    d="M2.33737 1H59.9927C61.2836 1 62.3301 2.03472 62.3301 3.31111V60.3185C62.3301 61.595 61.2836 62.6296 59.9927 62.6296H2.33737C1.04648 62.6296 0 61.595 0 60.3185V3.31111C0 2.03472 1.04648 1 2.33737 1ZM34.6489 33.7879V28.7333H12.466V33.7879H20.3857V56.2936H26.6904V33.7879H34.6489ZM37.1624 55.6994C38.1791 56.2119 39.3816 56.5963 40.7697 56.8526C42.158 57.1088 43.621 57.237 45.1591 57.237C46.6581 57.237 48.082 57.096 49.4312 56.8142C50.7802 56.5323 51.963 56.0677 52.9797 55.4206C53.9963 54.7735 54.8013 53.928 55.3944 52.8836C55.9874 51.8392 56.284 50.5483 56.284 49.0107C56.284 47.8959 56.1145 46.9191 55.7755 46.0797C55.4368 45.2404 54.948 44.4939 54.3092 43.8404C53.6706 43.1869 52.9048 42.6007 52.0118 42.0818C51.1189 41.563 50.1122 41.0728 48.9913 40.6115C48.17 40.2782 47.4335 39.9547 46.7819 39.6408C46.13 39.327 45.5761 39.0065 45.12 38.6799C44.6637 38.353 44.3119 38.0072 44.0642 37.6419C43.8165 37.2769 43.6928 36.8635 43.6928 36.4022C43.6928 35.9793 43.8035 35.5982 44.0251 35.2587C44.2468 34.9191 44.5594 34.6275 44.9636 34.3841C45.3677 34.1406 45.8629 33.9517 46.4495 33.8171C47.036 33.6827 47.6878 33.6153 48.4046 33.6153C48.9261 33.6153 49.4767 33.6537 50.0568 33.7305C50.6368 33.8076 51.2201 33.9261 51.8066 34.0861C52.3932 34.2463 52.9636 34.4481 53.5175 34.6917C54.0715 34.9352 54.583 35.217 55.0523 35.5372V29.7905C54.1006 29.4316 53.0612 29.1657 51.9336 28.9929C50.8063 28.8199 49.5125 28.7333 48.0526 28.7333C46.5669 28.7333 45.1591 28.8903 43.8296 29.2043C42.5 29.5182 41.3303 30.0084 40.32 30.6747C39.3097 31.341 38.5114 32.1898 37.925 33.2212C37.3383 34.2527 37.0451 35.486 37.0451 36.9211C37.0451 38.7536 37.5827 40.3169 38.6581 41.6108C39.7336 42.9051 41.366 44.0007 43.5558 44.8976C44.4162 45.2437 45.2177 45.5831 45.9608 45.9164C46.7036 46.2494 47.3455 46.5955 47.8865 46.9541C48.4274 47.313 48.8543 47.7036 49.1672 48.1265C49.4801 48.5494 49.6365 49.0299 49.6365 49.5682C49.6365 49.9655 49.5386 50.3338 49.3431 50.6732C49.1475 51.0129 48.851 51.3076 48.4534 51.5574C48.0559 51.8072 47.5608 52.0028 46.9677 52.1436C46.3746 52.2846 45.6804 52.355 44.8853 52.355C43.5297 52.355 42.1871 52.1213 40.8576 51.6536C39.5283 51.186 38.2964 50.4843 37.1624 49.549V55.6994Z"
    fill="#3178C6" />
</svg>
  