<svg width="64" height="64" viewBox="0 0 64 64" fill="none" xmlns="http://www.w3.org/2000/svg">
  <g clip-path="url(#clip0_1_150)">
    <mask id="mask0_1_150" style="mask-type:luminance" maskUnits="userSpaceOnUse" x="0" y="0"
      width="64" height="64">
      <path d="M64 0H0V64H64V0Z" fill="white" />
    </mask>
    <g mask="url(#mask0_1_150)">
      <g filter="url(#filter0_d_1_150)">
        <path
          d="M46.8678 22.2077L32.8506 42.4746C32.702 42.6895 32.4871 42.8505 32.2385 42.9331C31.9898 43.0157 31.7211 43.0149 31.4729 42.9319C31.2248 42.8485 31.0109 42.6868 30.8636 42.4715C30.7163 42.2559 30.6437 41.9983 30.6568 41.738L31.2178 30.5486L22.1612 28.6279C21.9676 28.5869 21.7873 28.4989 21.6361 28.3719C21.485 28.2449 21.3677 28.0827 21.2946 27.8997C21.2215 27.7166 21.1949 27.5184 21.2172 27.3226C21.2395 27.1268 21.3099 26.9394 21.4222 26.777L35.4395 6.50998C35.5881 6.29498 35.8031 6.13405 36.0517 6.05155C36.3004 5.96905 36.5691 5.96947 36.8173 6.05283C37.0654 6.13614 37.2794 6.29781 37.4267 6.51332C37.5739 6.72878 37.6465 6.9863 37.6334 7.2468L37.0724 18.4364L46.1289 20.3569C46.3224 20.3979 46.5028 20.4858 46.6541 20.6128C46.8053 20.7399 46.9225 20.9021 46.9954 21.0851C47.0687 21.2682 47.0951 21.4664 47.073 21.6622C47.0509 21.858 46.9803 22.0453 46.8678 22.2077Z"
          fill="#FCC72B" />
        <path
          d="M32.1887 59.4784C31.8159 59.4788 31.4467 59.4059 31.1023 59.2632C30.7578 59.1204 30.445 58.911 30.1817 58.6472L16.937 45.4035C16.4072 44.8709 16.1102 44.1499 16.1112 43.3985C16.1122 42.6472 16.4111 41.9265 16.9424 41.3955C17.4737 40.8641 18.194 40.5651 18.9454 40.5639C19.6968 40.5631 20.4179 40.8599 20.9507 41.3897L32.1887 52.6266L56.671 28.1454C57.2048 27.6203 57.9243 27.3274 58.6729 27.3305C59.4219 27.3335 60.1391 27.6323 60.6681 28.1617C61.1976 28.6911 61.4966 29.4083 61.4997 30.157C61.5024 30.9057 61.2096 31.6253 60.6844 32.159L34.1953 58.6472C33.9321 58.9114 33.6193 59.1204 33.2749 59.2632C32.9306 59.4059 32.5615 59.4788 32.1887 59.4784Z"
          fill="#729B1B" />
        <path
          d="M32.1773 59.4784C32.5502 59.4788 32.9194 59.4059 33.2638 59.2632C33.6083 59.1204 33.9211 58.911 34.1844 58.6472L47.429 45.4035C47.9589 44.8709 48.256 44.1499 48.2548 43.3985C48.2541 42.6472 47.955 41.9265 47.4236 41.3955C46.8922 40.8641 46.1719 40.5651 45.4206 40.5639C44.6693 40.5631 43.9482 40.8599 43.4153 41.3897L32.1773 52.6266L7.69509 28.1454C7.16137 27.6203 6.44178 27.3274 5.69309 27.3305C4.94437 27.3335 4.22718 27.6323 3.69777 28.1617C3.16835 28.6911 2.86957 29.4083 2.86652 30.157C2.86348 30.9057 3.1564 31.6253 3.6815 32.159L30.1708 58.6472C30.434 58.9114 30.7468 59.1204 31.0911 59.2632C31.4355 59.4059 31.8046 59.4788 32.1773 59.4784Z"
          fill="#729B1B" fill-opacity="0.5" />
      </g>
    </g>
  </g>
  <defs>
    <filter id="filter0_d_1_150" x="-7.67895" y="-2.79789" width="86.7545" height="81.6096"
      filterUnits="userSpaceOnUse" color-interpolation-filters="sRGB">
      <feFlood flood-opacity="0" result="BackgroundImageFix" />
      <feColorMatrix in="SourceAlpha" type="matrix"
        values="0 0 0 0 0 0 0 0 0 0 0 0 0 0 0 0 0 0 127 0" result="hardAlpha" />
      <feOffset dx="3.51515" dy="5.27273" />
      <feGaussianBlur stdDeviation="7.0303" />
      <feComposite in2="hardAlpha" operator="out" />
      <feColorMatrix type="matrix"
        values="0 0 0 0 0.108333 0 0 0 0 0.108333 0 0 0 0 0.108333 0 0 0 0.2 0" />
      <feBlend mode="normal" in2="BackgroundImageFix" result="effect1_dropShadow_1_150" />
      <feBlend mode="normal" in="SourceGraphic" in2="effect1_dropShadow_1_150" result="shape" />
    </filter>
    <clipPath id="clip0_1_150">
      <rect width="64" height="64" fill="white" />
    </clipPath>
  </defs>
</svg>
  